<?xml version="1.0" encoding="utf-8"?>
<!-- Generator: Adobe Illustrator 26.3.1, SVG Export Plug-In . SVG Version: 6.00 Build 0)  -->
<svg version="1.1" xmlns="http://www.w3.org/2000/svg" xmlns:xlink="http://www.w3.org/1999/xlink" x="0px" y="0px"
	 viewBox="0 0 200 200" style="enable-background:new 0 0 200 200;" xml:space="preserve">
<g id="圖層_1">
	<rect width="200" height="200"/>
</g>
<g id="圖層_2">
	<g>
		<path style="fill:#FFFFFF;" d="M161.32,54.47v-5.92h23.67v45.9h-23.67v-8.42c-7.89-11.31-18.68-16.96-32.35-16.96
			c-7.19,0-13.06,1.58-17.62,4.74c-4.56,3.16-6.84,7.23-6.84,12.23c0,4.47,1.73,7.98,5.19,10.52c3.46,2.55,11.25,4.78,23.34,6.71
			l18.28,3.55c27.26,5,40.9,18.37,40.9,40.11c0,12.71-4.93,22.93-14.79,30.64c-9.86,7.72-22.95,11.57-39.26,11.57
			c-6.49,0-12.87-0.95-19.13-2.83c-6.27-1.89-11.51-4.23-15.72-7.04v7.49h-24.2v-47.34h24.2v4.73c1.32,6.67,5.02,12.02,11.11,16.05
			c6.09,4.03,13.17,6.05,21.24,6.05c8.85,0,15.82-1.56,20.91-4.67c5.08-3.11,7.63-7.74,7.63-13.87c0-4.47-2.02-7.82-6.05-10.06
			c-4.03-2.23-12.14-4.54-24.33-6.9l-14.07-3.03c-13.94-2.8-24.16-7.63-30.64-14.47c-6.49-6.84-9.73-15.56-9.73-26.17
			c0-8.59,2.39-15.93,7.17-22.03c4.78-6.09,10.89-10.67,18.35-13.74c7.45-3.07,15.12-4.6,23.01-4.6
			C141.15,46.71,152.29,49.3,161.32,54.47z"/>
	</g>
	<rect x="9.44" y="175.36" style="fill:#898989;" width="58.92" height="11.35"/>
</g>
</svg>
