<svg width="800" height="450" xmlns="http://www.w3.org/2000/svg" font-family="'Courier New', monospace">
  <!-- Background -->
  <rect width="800" height="450" fill="#0D1117"/>
  <!-- Window chrome -->
  <rect width="800" height="36" fill="#161B22"/>
  <circle cx="18" cy="18" r="6" fill="#F85149"/>
  <circle cx="38" cy="18" r="6" fill="#D29922"/>
  <circle cx="58" cy="18" r="6" fill="#3FB950"/>
  <text x="400" y="22" fill="#6E7681" font-size="11" text-anchor="middle">住通房管系統 — 管理後台 v1.0.0</text>
  <line x1="0" y1="36" x2="800" y2="36" stroke="#30363D" stroke-width="1"/>
  <!-- Sidebar -->
  <rect x="0" y="36" width="190" height="414" fill="#0F1419"/>
  <line x1="190" y1="36" x2="190" y2="450" stroke="#21262D" stroke-width="1"/>
  <text x="16" y="70" fill="#6E7681" font-size="10">NAVIGATION</text>
  <rect x="8" y="78" width="174" height="26" rx="4" fill="#1A7F37" opacity="0.25"/>
  <text x="20" y="96" fill="#3FB950" font-size="12">▶  物件管理</text>
  <text x="20" y="128" fill="#8B949E" font-size="12">   租約管理</text>
  <text x="20" y="156" fill="#8B949E" font-size="12">   費用收付</text>
  <text x="20" y="184" fill="#8B949E" font-size="12">   維修申報</text>
  <text x="20" y="212" fill="#8B949E" font-size="12">   租戶管理</text>
  <text x="20" y="240" fill="#8B949E" font-size="12">   報表統計</text>
  <line x1="16" y1="264" x2="174" y2="264" stroke="#21262D" stroke-width="1"/>
  <text x="16" y="288" fill="#6E7681" font-size="10">MOBILE APP</text>
  <text x="20" y="308" fill="#58A6FF" font-size="12">📱 iOS 1.2.3</text>
  <text x="20" y="330" fill="#58A6FF" font-size="12">📱 Android 1.2.3</text>
  <!-- Main content -->
  <text x="210" y="68" fill="#E6EDF3" font-size="16" font-weight="bold">物件管理</text>
  <text x="210" y="86" fill="#8B949E" font-size="11">共 24 個物件  ·  3 個待確認  ·  1 個空置中</text>
  <!-- Stats row -->
  <rect x="210" y="96" width="110" height="52" rx="6" fill="#161B22" stroke="#30363D" stroke-width="1"/>
  <text x="222" y="114" fill="#8B949E" font-size="10">出租中</text>
  <text x="222" y="136" fill="#3FB950" font-size="20" font-weight="bold">20</text>
  <rect x="332" y="96" width="110" height="52" rx="6" fill="#161B22" stroke="#30363D" stroke-width="1"/>
  <text x="344" y="114" fill="#8B949E" font-size="10">待確認</text>
  <text x="344" y="136" fill="#E3B341" font-size="20" font-weight="bold">3</text>
  <rect x="454" y="96" width="110" height="52" rx="6" fill="#161B22" stroke="#30363D" stroke-width="1"/>
  <text x="466" y="114" fill="#8B949E" font-size="10">空置中</text>
  <text x="466" y="136" fill="#F85149" font-size="20" font-weight="bold">1</text>
  <!-- Table -->
  <rect x="210" y="162" width="575" height="28" rx="0" fill="#161B22"/>
  <text x="224" y="180" fill="#6E7681" font-size="11">物件名稱</text>
  <text x="450" y="180" fill="#6E7681" font-size="11">狀態</text>
  <text x="540" y="180" fill="#6E7681" font-size="11">月租金</text>
  <text x="660" y="180" fill="#6E7681" font-size="11">到期日</text>
  <line x1="210" y1="190" x2="785" y2="190" stroke="#21262D" stroke-width="1"/>
  <!-- Row 1 -->
  <text x="224" y="210" fill="#E6EDF3" font-size="12">台北市信義區信義路三段 201 號 2F</text>
  <rect x="446" y="200" width="52" height="18" rx="9" fill="#1A7F37"/>
  <text x="452" y="213" fill="#3FB950" font-size="10">出租中</text>
  <text x="540" y="210" fill="#E6EDF3" font-size="12">$25,000</text>
  <text x="660" y="210" fill="#8B949E" font-size="12">2025/12/31</text>
  <line x1="210" y1="220" x2="785" y2="220" stroke="#21262D" stroke-width="1"/>
  <!-- Row 2 -->
  <text x="224" y="240" fill="#E6EDF3" font-size="12">新北市板橋區文化路一段 88 號 8F</text>
  <rect x="446" y="230" width="52" height="18" rx="9" fill="#7D4E00"/>
  <text x="449" y="243" fill="#E3B341" font-size="10">待確認</text>
  <text x="540" y="240" fill="#E6EDF3" font-size="12">$18,000</text>
  <text x="660" y="240" fill="#8B949E" font-size="12">—</text>
  <line x1="210" y1="250" x2="785" y2="250" stroke="#21262D" stroke-width="1"/>
  <!-- Row 3 -->
  <text x="224" y="270" fill="#E6EDF3" font-size="12">台中市西屯區台灣大道四段 566 號 3F</text>
  <rect x="446" y="260" width="52" height="18" rx="9" fill="#1A7F37"/>
  <text x="452" y="273" fill="#3FB950" font-size="10">出租中</text>
  <text x="540" y="270" fill="#E6EDF3" font-size="12">$22,000</text>
  <text x="660" y="270" fill="#8B949E" font-size="12">2026/03/31</text>
  <line x1="210" y1="280" x2="785" y2="280" stroke="#21262D" stroke-width="1"/>
  <!-- Fading rows -->
  <text x="224" y="300" fill="#E6EDF3" font-size="12" opacity="0.55">高雄市三民區九如二路 22 號 12F</text>
  <text x="540" y="300" fill="#E6EDF3" font-size="12" opacity="0.55">$15,500</text>
  <line x1="210" y1="310" x2="785" y2="310" stroke="#21262D" stroke-width="1" opacity="0.4"/>
  <text x="224" y="330" fill="#E6EDF3" font-size="12" opacity="0.25">台南市東區東門路一段 305 號 5F</text>
  <!-- Bottom status bar -->
  <rect x="0" y="416" width="800" height="34" fill="#010409"/>
  <line x1="0" y1="416" x2="800" y2="416" stroke="#21262D" stroke-width="1"/>
  <text x="16" y="437" fill="#3FB950" font-size="11">$ npm run dev  ✓ ready</text>
  <text x="190" y="437" fill="#6E7681" font-size="11">|</text>
  <text x="204" y="437" fill="#8B949E" font-size="11">React 18  ·  TypeScript  ·  Ant Design  ·  React Native</text>
  <text x="680" y="437" fill="#3FB950" font-size="11">✓ iOS ✓ Android</text>
</svg>